<svg width="40" height="40" viewBox="0 0 40 40" fill="none" xmlns="http://www.w3.org/2000/svg">
<rect width="40" height="40" rx="4" fill="#DBE1FF"/>
<path d="M20 24.5C21.25 24.5 22.3125 24.0625 23.1875 23.1875C24.0625 22.3125 24.5 21.25 24.5 20C24.5 18.75 24.0625 17.6875 23.1875 16.8125C22.3125 15.9375 21.25 15.5 20 15.5C18.75 15.5 17.6875 15.9375 16.8125 16.8125C15.9375 17.6875 15.5 18.75 15.5 20C15.5 21.25 15.9375 22.3125 16.8125 23.1875C17.6875 24.0625 18.75 24.5 20 24.5ZM20 22.7C19.25 22.7 18.6125 22.4375 18.0875 21.9125C17.5625 21.3875 17.3 20.75 17.3 20C17.3 19.25 17.5625 18.6125 18.0875 18.0875C18.6125 17.5625 19.25 17.3 20 17.3C20.75 17.3 21.3875 17.5625 21.9125 18.0875C22.4375 18.6125 22.7 19.25 22.7 20C22.7 20.75 22.4375 21.3875 21.9125 21.9125C21.3875 22.4375 20.75 22.7 20 22.7ZM20 27.5C17.5667 27.5 15.35 26.8208 13.35 25.4625C11.35 24.1042 9.9 22.2833 9 20C9.9 17.7167 11.35 15.8958 13.35 14.5375C15.35 13.1792 17.5667 12.5 20 12.5C22.4333 12.5 24.65 13.1792 26.65 14.5375C28.65 15.8958 30.1 17.7167 31 20C30.1 22.2833 28.65 24.1042 26.65 25.4625C24.65 26.8208 22.4333 27.5 20 27.5ZM20 25.5C21.8833 25.5 23.6125 25.0042 25.1875 24.0125C26.7625 23.0208 27.9667 21.6833 28.8 20C27.9667 18.3167 26.7625 16.9792 25.1875 15.9875C23.6125 14.9958 21.8833 14.5 20 14.5C18.1167 14.5 16.3875 14.9958 14.8125 15.9875C13.2375 16.9792 12.0333 18.3167 11.2 20C12.0333 21.6833 13.2375 23.0208 14.8125 24.0125C16.3875 25.0042 18.1167 25.5 20 25.5Z" fill="#004AC6"/>
</svg>
